P1
# Created by GIMP version 2.10.28 PNM plug-in
213 200
0000000000000000000000000000000000000000000000000000000000000000000000
0000000000000000000000000000000000000000000000000000000000000000000000
0000000000000000000000000000000000000000000000000000000000000000000000
0000000000000000000000000000000000000000000000000000000000000000000000
0000000000000000000000000000000000000000000000000000000000000000000000
0000000000000000000000000000000000000000000000000000000000000000000000
0000000000000000000000000000000000000000000000000000000000000000000000
0000000000000000000000000000000000000000000000000000000000000000000000
0000000000000000000000000000000000000000000000000000000000000000000000
0000000000000000000000000000000000000000000000000000000000000000000000
0000000000000000000000000000000000000000000000000000000000000000000000
0000000000000000000000000000000000000000000000000000000000000000000000
0000000000000000000000000000000000000000000000000000000000000000000000
0000000000000000000000000000000000000000000000000000000000000000000000
0000000000000000000000000000000000000000000000000000000000000000000000
0000000000000000000000000000000000000000000000000000000000000000000000
0000000000000000000000000000000000000000000000000000000000010111110100
0000000000000000000000000000000000000000000000000000000000000000000000
0000000000000000000000000000000000000000000000000000000000000000000000
0000000000000000000000000000000000000000000000000000000111111111111111
1111111100000000000000000000000000000000000000000000000000000000000000
0000000000000000000000000000000000000000000000000000000000000000000000
0000000000000000000000000000000000000000000000000000111111111111111111
1111111111111111110000000000000000000000000000000000000000000000000000
0000000000000000000000000000000000000000000000000000000000000000000000
0000000000000000000000000000000000000000000000000000011111111111111111
1111111111111111111111110000000000000000000000000000000000000000000000
0000000000000000000000000000000000000000000000000000000000000000000000
0000000000000000000000000000000000000000000000000000011111111111111111
1111111111111111111111111111100000000000000000000000000000000000000000
0000000000000000000000000000000000000000000000000000000000000000000000
0000000000000000000000000000000000000000000000000000001111111111111111
1111111111111111111111111111111111100000000000000000000000000000000000
0000000000000000000000000000000000000000000000000000000000000000000000
0000000000000000000000000000000000000000000000000000000111111111111111
1111111111111111111111111111111111111111000000000000000000000000000000
0000000000000000000000000000000000000000000000000000000000000000000000
0000000000000000000000000000000000000000000000000000000001111111111111
1111111111111111111111111111111111111111111110000000000000000000000000
0000000000000000000000000000000000000000000000000000000000000000000000
0000000000000000000000000000000000000000000000000000000001111111111111
1111111111111111111111111111111111111111111111111110000000000000000000
0000000000000000000000000000000000000000000000000000000000000000000000
0000000000000000000000000000000000000000000000000000000000011111111111
1111111111111111111111111111111111111111111111111111111000000000000000
0000000000000000000000000000000000000000000000000000000000000000000000
0000000000000000000000000000000000000000000000000000000000000111111111
1111111111111111111111111111111111111111111111111111111111110000000000
0000000000000000000000000000000000000000000000000000000000000000000000
0000000000000000000000000000000000000000000000000000000000000001111111
1111111111111111111111111111111111111111111111111111111111111111000000
0000000000000000000000000000000000000000000000000000000000000000000000
0000000000000000000000000000000000000000000000000000000000000000111111
1111111111111111111111111111111111111111111111111111111111111111111110
0000000000000000000000000000000000000000000000000000000000000000000000
0000000000000000000000000000000000000000000000000000000000000000001111
1111111111111111111111111111111111111111111111111111111111111111111111
1110000000000000000000000000000000000000000000000000000000000000000000
0000000000000000000000000000000000000000000000011111110000000000000011
1111111111111111111111111111111111111111111111111111111111111111111111
1111111000000000000000000000000000000000000000000000000000000000000000
0000000000000000000000000000000000000000000000001111111111110000000000
1111111111111111111111111111111111111111111111111111111111111111111111
1111111111110000000000000000000000000000000000000000000000000000000000
0000000000000000000000000000000000000000000000000111111111111111000000
0011111111111111111111111111111111111111111111111111111111111111111111
1111111111111111000000000000000000000000000000000000000000000000000000
0000000000000000000000000000000000000000000000000011111111111111111100
0000111111111111111111111111111111111111111111111111111111111111111111
1111111111111111111100000000000000000000000000000000000000000000000000
0000000000000000000000000000000000000000000000000000111111111111111111
1100000111111111111111111111111111111111111111111111111111111111111111
1111111111111111111111110000000000000000000000000000000000000000000000
0000000000000000000000000000000000000000000000000000011111111111111111
1111100001111111111111111111111111111111111110000000001111111111111111
1111111111111111111111111111000000000000000000000000000000000000000000
0000000000000000000000000000000000000000000000000000001111111111111111
1111111100011111111111111111111111111111111000000000000000000001111111
1111111111111111111111111111111100000000000000000000000000000000000000
0000000000000000000000000000000000000000000000000000000011111111111111
1111111111100111111111111111111111111111111000000000000000000000000000
1111111111111111111111111111111111110000000000000000000000000000000000
0000000000000000000000000000000000000000000000000000000001111111111111
1111111111111101111111111111111111111111111000000000000000000000000000
0000000111111111111111111111111111111111000000000000000000000000000000
0000000000000000000000000000000000000000000000000000000000011111111111
1111111111111111111111111111111111111111111100000000000000000000000000
0000000000000111111111111111111111111111111100000000000000000000000000
0000000000000000000000000000000000000000000000000000000000001111111111
1111111111111111111111111111111111111111111111000000000000000000000000
0000000000000000011111111111111111111111111111110000000000000000000000
0000000000000000000000000000000000000000000000000000000000000011111111
1111111111111111111111111111111111111111111111100000000000000000000000
0000000000000000000000111111111111111111111111111110000000000000000000
0000000000000000000000000000000000000000000000000000000000000000111111
1111111111111111111111111111111111111111111111111000000000000000000000
0000000000000000000000000001111111111111111111111111111000000000000000
0000000000000000000000000000000000000000000000000000000000000000001111
1111111111111111111111111111111111111111111111111110000000000000000000
0000000000000000000000000000000011111111111111111111111111100000000000
0000000000000000000000000000000000000000000000000000000000000000000111
1111111111111111111111111111111111111111111111111111000000000000000000
0000000000000000000000000000000000001111111111111111111111111110000000
0000000000000000000000000000000000000000000000000000000000000000000001
1111111111111111111111111111111111111111111111111111111000000000000000
0000000000000000000000000000000000000000111111111111111111111111110000
0000000000000000000000000000000000000000000000000000000000000000000000
0111111111111111111111111111111111111111111111111111111110000000000000
0000000000000000000000000000000000000000000001111111111111111111111111
0000000000000000000000000000000000000000000000000000000000000000000000
0001111111111111111111111111111111111011111111111111111111100000000000
0000000000000000000000000000000000000000000000000111111111111111111111
1110000000000000000000000000000000000000000000000000000000000000000000
0000011111111111111111111111111111111100111111111111111111111100000000
0000000000000000000000000000000000000000000000000000011111111111111111
1111111000000000000000000000000000000000000000000000000000000000000000
0000000111111111111111111111111111111110000111111111111111111111000000
0000000000000000000000000000000000000000000000000000000001111111111111
1111111111100000000000000000000000000000000000000000000000000000000000
0000000001111111111111111111111111111111000000111111111111111111110000
0000000000000000000000000000000000000000000000000000000000001111111111
1111111111111100000000000000000000000000000000000000000000000000000000
0000000000011111111111111111111111111111100000001111111111111111111110
0000000000000000000000000000000000000000000000000000000000000000011111
1111111111111111110000000000000000000000000000000000000000000000000000
0000000000000111111111111111111111111111110000000001111111111111111111
1000000000000000000000000000000000000000000000000000000000000000000011
1111111111111111111111000000000000000000000000000000000000000000000000
0000000000000001111111111111111111111111111100000000011111111111111111
1111000000000000000000000000000000000000000000000000000000000000000000
0011111111111111111111111000000000000000000000000000000000000000000000
0000000000000000011111111111111111111111111110000000000011111111111111
1111110000000000000000000000000000000000000000000000000000000000000000
0000001111111111111111111111100000000000000000000000000000000000000000
0000000000000000000111111111111111111111111111100000000000011111111111
1111111110000000000000000000000000000000000000000000000000000000000000
0000000000111111111111111111111100000000000000000000000000000000000000
0000000000000000000000111111111111111111111111111000000000000011111111
1111111111110000000000000000000000000000000000000000000000000000000000
0000000000000111111111111111111111100000000000000000000000000000000000
0000000000000000000000001111111111111111111111111110000000000000011111
1111111111111110000000000000000000000000000000000000000000000000000000
0000000000000000011111111111111111111100000000000000000000000000000000
0000000000000000000000000011111111111111111111111111000000000000000011
1111111111111111100000000000000000000000000000000000000000000000000000
0000000000000000000001111111111111111111110000000000000000000000000000
0000000000000000000000000000111111111111111111111111110000000000000000
0111111111111111111100000000000000000000000000000000000000000000000000
0000000000000000000000001111111111111111111110000000000000000000000000
0000000000000000000000000000001111111111111111111111111100000000000000
0000111111111111111111100000000000000000000000000000000000000000000000
0000000000000000000000000000111111111111111111111000000000000000000000
0000000000000000000000000000000001111111111111111111111111000000000000
0000001111111111111111111100000000000000000000000000000000000000000000
0000000000000000000000000000000111111111111111111111000000000000000000
0000000000000000000000000000000000011111111111111111111111110000000000
0000000001111111111111111111100000000000000000000000000000000000000000
0000000000000000000000000000000000011111111111111111111000000000000000
0000000000000000000000000000000000000111111111111111111111111100000000
0000000000001111111111111111111100000000000000000000000000000000000000
0000000000000000000000000000000000000011111111111111111111100000000000
0000000000000000000000000000000000000001111111111111111111111111000000
0000000000000001111111111111111111100000000000000000000000000000000000
0000000000000000000000000000000000000000001111111111111111111100000000
0000000000000000000000000000000000000000001111111111111111111111110000
0000000000000000001111111111111111111000000000000000000000000000000000
0000000000000000000000000000000000000000000001111111111111111111110000
0000000000000000000000000000000000000000000011111111111111111111111100
0000000000000000000001111111111111111111000000000000000000000000000000
0000000000000000000000000000000000000000000000000111111111111111111110
0000000000000000000000000000000000000000000000011111111111111111111111
0000000000000000000000001111111111111111111000000000000000000000000000
0000000000000000000000000000000000000000000000000000111111111111111111
1100000000000000000000000000000000000000000000000111111111111111111111
1100000000000000000000000001111111111111111111100000000000000000000000
0000000000000000000000000000000000000000000000000000000111111111111111
1111100000000000000000000000000000000000000000000000111111111111111111
1111000000000000000000000000001111111111111111111000000000000000000000
0000000000000000000000000000000000000000000000000000000000011111111111
1111111110000000000000000000000000000000000000000000001111111111111111
1111111000000000000000000000000001111111111111111111100000000000000000
0000000000000000000000000000000000000000000000000000000000000011111111
1111111111110000000000000000000000000000000000000000000011111111111111
1111111110000000000000000000000000001111111111111111111100000000000000
0000000000000000000000000000000000000000000000000000000000000000011111
1111111111111110000000000000000000000000000000000000000000011111111111
1111111111100000000000000000000000000001111111111111111111100000000000
0000000000000000000000000000000000000000000000000000000000000000000001
1111111111111111110000000000000000000000000000000000000000000111111111
1111111111111000000000000000000000000000000111111111111111111100000000
0000000000000000000000000000000000000000000000000000000000000000000000
0011111111111111111111000000000000000000000000000000000000000000111111
1111111111111111000000000000000000000000000000111111111111111111100000
0000000000000000000000000000000000000000000000000000000000000000000000
0000011111111111111111111000000000000000000000000000000000000000001111
1111111111111111110000000000000000000000000000000111111111111111111100
0000000000000000000000000000000000000000000000000000000000000000000000
0000000011111111111111111111000000000000000000000000000000000000000001
1111111111111111111110000000000000000000000000000000111111111111111111
1100000000000000000000000000000000000000000000000000000000000000000000
0000000000011111111111111111111000000000000000000000000000000000000000
0111111111111111111111100000000000000000000000000000000111111111111111
1111100000000000000000000000000000000000000000000000000000000000000000
0000000000000011111111111111111111000000000000000000000000000000000000
0000111111111111111111111000000000000000000000000000000000111111111111
1111111100000000000000000000000000000000000000000000000000000000000000
0000000000000000001111111111111111111000000000001111110000000000000000
0000000111111111111111111110000000000000000000000000000000000111111111
1111111111100000000000000000000000000000000000000000000000000000000000
0000000000000000000001111111111111111111000000000111111111100000000000
0000000001111111111111111111110000000000000000000000000000000000111111
1111111111111110000000000000000000000000000000000000000000000000000000
0000000000000000000000001111111111111111111000000001111111111110000000
0000000000001111111111111111111110000000000000000000000000000000000111
1111111111111111110000000000000000000000000000000000000000000000000000
0000000000000000000000000001111111111111111111000000011111111111111000
0000000000000011111111111111111111100000000000000000000000000000000000
0111111111111111111110000000000000000000000000000000000000000000000000
0000000000000000000000000000001111111111111111111100000011111111111111
0000000000000000011111111111111111111100000000000000000000000000000000
0000111111111111111111111000000000000000000000000000000000000000000000
0000000000000000000000000000000001111111111111111111100000111111111111
1111000000000000000011111111111111111111000000000000000000000000000000
0000000111111111111111111111100000000000000000000000000000000000000000
0000000000000000000000000000000000000111111111111111111100011111111111
1111111100000000000000111111111111111111111000000000000000000000000000
0000000000011111111111111111111100000000000000000000000000000000000000
0000000000000000000000000000000000000000111111111111111111100111111111
1111111111100000000000000111111111111111111110000000000000000000000000
0000000000000011111111111111111111110000000000000000000000000000000000
0000000000000000000000000000000000000000000111111111111111111101111111
1111111111111100000000000000111111111111111111110000000000000000000000
0000000000000000011111111111111111111111000000000000000000000000000000
0000000000000000000000000000000000000000000000111111111111111111111111
1111111111111111100000000000001111111111111111111110000000000000000000
0000000000000000000001111111111111111111111000000000000000000000000000
0000000000000000000000000000000000000000000000000111111111111111111111
1111111111111111111100000000000001111111111111111111100000000000000000
0000000000000000000000001111111111111111111111100000000000000000000000
0000000000000000000000000000000000000000000000000000111111111111111111
1111111111111111111111100000000000001111111111111111111100000000000000
0000000000000000000000000000111111111111111111111110000000000000000000
0000000000000000000000000000000000000000000000000000000111111111111111
1111111111111111111111111100000000000011111111111111111111000000000000
0000000000000000000000000000000111111111111111111111111000000000000000
0000000000000000000000000000000000000000000000000000000000111111111111
1111111111111111111111111111000000000000011111111111111111111000000000
0000000000000000000000000000000000011111111111111111111111100000000000
0000000000000000000000000000000000000000000000000000000000000111111111
1111111111111111111111111111111000000000000011111111111111111111000000
0000000000000000000000000000000000000001111111111111111111111110000000
0000000000000000000000000000000000000000000000000000000000000000111111
1111111111111111111111111111111110000000000000111111111111111111110000
0000000000000000000000000000000000000000001111111111111111111111111000
0000000000000000000000000000000000000000000000000000000000000000000111
1111111111111111111111111111111111100000000000000111111111111111111110
0000000000000000000000000000000000000000000001111111111111111111111111
1000000000000000000000000000000000000000000000000000000000000000000000
1111111111111111111111111111111111111100000000000000111111111111111111
1100000000000000000000000000000000000000000000000111111111111111111111
1111100000000000000000000000000000000000000000000000000000000000000000
0001111111111111111111111111111111111111000000000000000111111111111111
1111100000000000000000000000000000000000000000000000011111111111111111
1111111110000000000000000000000000000000000000000000000000000000000000
0000001111111111111111111111111111111111110000000000000000111111111111
1111111000000000000000000000000000000000000000000000000001111111111111
1111111111111110000000000000000000000000000000000000000000000000000000
0000000001111111111111111111111111111111111100000000000000000111111111
1111111111000000000000000000000000000000000000000000000000001111111111
1111111111111111111100000000000000000000000000000000000000000000000000
0000000000001111111111111111111111111111111111000000000000000001111111
1111111111111000000000000000000000000000000000000000000000000000111111
1111111111111111111111110000000000000000000000000000000000000000000000
0000000000000111111111111111111111111111111111110000000000000000001111
1111111111111111000000000000000000000000000000000000000000000000000011
1111111111111111111111111111100000000000000000000000000000000000000000
0000000000000011111111111111111111111111111111111100000000000000000001
1111111111111111110000000000000000000000000000000000000000000000000000
0011111111111111111111111111111111100000000000000000000000000000000000
0000000000000001111111111111111111111111111111111111000000000000000000
0011111111111111111110000000000000000000000000000000000000000000000000
0000011111111111111111111111111111111111000000000000000000000000000000
0000000000000001111111111111111111111111111111111111110000000000000000
0000011111111111111111110000000000000000000000000000000000000000000000
0000000001111111111111111111111111111111111111110000000000000000000000
0000000000000111111111111111111111111111111111111111111000000000000000
0000000011111111111111111110000000000000000000000000000000000000000000
0000000000000111111111111111111111111111111111111111111000000000000000
0000000000001111111111111111111111111111111111111111111100000000000000
0000000000111111111111111111110000000000000000000000000000000000000000
0000000000000000011111111111111111111111111111111111111111111111110100
0000000101111111111111111111111111111111111111111111111111000000000000
0000000000000111111111111111111110000000000000000000000000000000000000
0000000000000000000000111111111111111111111111111111111111111111111111
1111111111111111111111111111111111111111111111111111111111110000000000
0000000000000000111111111111111111100000000000000000000000000000000000
0000000000000000000000000011111111111111111111111111111111111111111111
1111111111111111111111111111111111111111111111111111111111111100000000
0000000000000000000111111111111111111100000000000000000000000000000000
0000000000000000000000000000001111111111111111111111111111111111111111
1111111111111111111111111111111111111111111111111111111111111110000000
0000000000000000000000111111111111111111100000000000000000000000000000
0000000000000000000000000000000000111111111111111111111111111111111111
1111111111111111111111111111111111111111111111111111111111111111100000
0000000000000000000000000111111111111111111100000000000000000000000000
0000000000000000000000000000000000000001111111111111111111111111111111
1111111111111111111111111111111111111111111111111111111111111111110000
0000000000000000000000000000111111111111111111100000000000000000000000
0000000000000000000000000000000000000000000111111111111111111111111111
1111111111111111111111111111111111111111111111111111111111111111111110
0000000000000000000000000000000111111111111111111100000000000000000000
0000000000000000000000000000000000000000000000011111111111111111111111
1111111111111111111111111111111111111111111111111111111111111111111111
1100000000000000000000000000000000111111111111111111100000000000000000
0000000000000000000000000000000000000000000000000000111111111111111111
1111111111111111111111111111111111111111111111111111111111111111111111
1111100000000000000000000000000000000111111111111111111100000000000000
0000000000000000000000000000000000000000000000000000000011111111111111
1111111111111111111111111111111111111111111111111111111111111111111111
1111111100000000000000000000000000000000111111111111111111100000000000
0000000000000000000000000000000000000000000000000000000000000111111111
1111111111111111111111111111111111111111111111111111111111111111111111
1111111111100000000000000000000000000000000111111111111111111100000000
0000000000000000000000000000000000000000000000000000000000000000001111
1111111111111111111111111111111111111111111111111111111111111111111111
1111111111111100000000000000000000000000000000111111111111111111100000
0000000000000000000000000000000000000000000000000000000000000000000000
0011111111111111111111111111111111111111111111111111111111111111111111
1111111111111111100000000000000000000000000000001111111111111111111100
0000000000000000000000000000000000000000000000000000000000000000000000
0000000111111111111111111111111111111111111111111111111111111111111111
1111111111111111111000000000000000000000000000000000111111111111111111
1000000000000000000000000000000000000000000000000000000000000000000000
0000000000000111111111111111111111111111111111111111111111111111111111
1111111111111111111111000000000000000000000000000000001111111111111111
1111000000000000000000000000000000000000000000000000000000000000000000
0000000000000000001111111111111111111111111111111111111111111111111111
1111101111111111111111111000000000000000000000000000000000111111111111
1111111000000000000000000000000000000000000000000000000000000000000000
0000000000000000000000000111111111111111111111111111111111111111111111
1111100001111111111111111111000000000000000000000000000000000111111111
1111111111000000000000000000000000000000000000000000000000000000000000
0000000000000000000000000000000111111111111111111111111111111111111111
1111000000011111111111111111111000000000000000000000000000000000111111
1111111111111000000000000000000000000000000000000000000000000000000000
0000000000000000000000000000000000000000001111111111111111111111111111
1000000000000011111111111111111110000000000000000000000000000000000111
1111111111111111000000000000000000000000000000000000000000000000000000
0000000000000000000000000000000000000000000000000000101111111111101000
0000000000000000011111111111111111110000000000000000000000000000000000
1111111111111111111000000000000000000000000000000000000000000000000000
0000000000000000000000000000000000000000000000000000000000000000000000
0000000000000000000011111111111111111110000000000000000000000000000000
0001111111111111111111000000000000000000000000000000000000000000000000
0000000000000000000000000000000000000000000000000000000000000000000000
0000000000000000000000111111111111111111110000000000000000000000000000
0000001111111111111111111000000000000000000000000000000000000000000000
0000000000000000000000000000000000000000000000000000000000000000000000
0000000000000000000000000111111111111111111110000000000000000000000000
0000000001111111111111111111000000000000000000000000000000000000000000
0000000000000000000000000000000000000000000000000000000000000000000000
0000000000000000000000000000111111111111111111100000000000000000000000
0000000000001111111111111111111000000000000000000000000000000000000000
0000000000000000000000000000000000000000000000000000000000000000000000
0000000000000000000000000000000111111111111111111100000000000000000000
0000000000000001111111111111111111000000000000000000000000000000000000
0000000000000000000000000000000000000000000000000000000000000000000000
0000000000000000000000000000000001111111111111111111100000000000000000
0000000000000000001111111111111111111000000000000000000000000000000000
0000000000000000000000000000000000000000000000000000000000000000000000
0000000000000000000000000000000000001111111111111111111100000000000000
0000000000000000000001111111111111111111100000000000000000000000000000
0000000000000000000000000000000000000000000000000000000000000000000000
0000000000000000000000000000000000000011111111111111111111000000000000
0000000000000000000000001111111111111111111100000000000000000000000000
0000000000000000000000000000000000000000000000000000000000000000000000
0000000000000000000000000000000000000000011111111111111111111000000000
0000000000000000000000000000111111111111111111100000000000000000000000
0000000000000000000000000000000000000000000000000000000000000000000000
0000000000000000000000000000000000000000000011111111111111111111000000
0000000000000000000000000000000111111111111111111100000000000000000000
0000000000000000000000000000000000000000000000000000000000000000000000
0000000000000000000000000000000000000000000000111111111111111111111000
0000000000000000000000000000000000111111111111111111100000000000000000
0000000000000000000000000000000000000000000000000000000000000000000000
0000000000000000000000000000000000000000000000000111111111111111111110
0000000000000000000000000000000000000111111111111111111100000000000000
0000000000000000000000000000000000000000000000000000000000000000000000
0000000000000000000000000000000000000000000000000001111111111111111111
1100000000000000000000000000000000000000111111111111111111110000000000
0000000000000000000000000000000000000000000000000000000000000000000000
0000000000000000000000000000000000000000000000000000001111111111111111
1111000000000000000000000000000000000000000111111111111111111110000000
0000000000000000000000000000000000000000000000000000000000000000000000
0000000000000000000000000000000000000000000000000000000001111111111111
1111111000000000000000000000000000000000000000011111111111111111110000
0000000000000000000000000000000000000000000000000000000000000000000000
0000000000000000000000000000000000000000000000000000000000001111111111
1111111111000000000000000000000000000000000000000011111111111111111110
0000000000000000000000000000000000000000000000000000000000000000000000
0000000000000000000000000000000000000000000000000000000000000011111111
1111111111111000000000000000000000000000000000000000011111111111111111
1110000000000000000000000000000000000000000000000000000000000000000000
0000000000000000000000000000000000000000000000000000000000000000011111
1111111111111111000000000000000000000000000000000000000011111111111111
1111110000000000000000000000000000000000000000000000000000000000000000
0000000000000000000000000000000000000000000000000000000000000000000111
1111111111111111110000000000000000000000000000000000000000011111111111
1111111110000000000000000000000000000000000000000000000000000000000000
0000000000000000000000000000000000000000000000000000000000000000000001
1111111111111111111110000000000000000000000000000000000000000011111111
1111111111110000000000000000000000000000000000000000000000000000000000
0000000000000000000000000000000000000000000000000000000000000000000000
0011111111111111111111100000000000000000000000000000000000000000001111
1111111111111111000000000000000000000000000000000000000000000000000000
0000000000000000000000000000000000000000000000000000000000000000000000
0000011111111111111111111100000000000000000000000000000000000000000001
1111111111111111111000000000000000000000000000000000000000000000000000
0000000000000000000000000000000000000000000000000000000000000000000000
0000000111111111111111111111100000000000000000000000000000000000000000
0011111111111111111111000000000000000000000000000000000000000000000000
0000000000000000000000000000000000000000000000000000000000000000000000
0000000001111111111111111111111000000000000000000000000000000000000000
0000011111111111111111111100000000000000000000000000000000000000000000
0000000000000000000000000000000000000000000000000000000000000000000000
0000000000001111111111111111111111000000000000000000000000000000000000
0000000001111111111111111111100000000000000000000000000000000000000000
0000000000000000000000000000000000000000000000000000000000000000000000
0000000000000011111111111111111111110000000000000000000000000000000000
0000000000001111111111111111111110000000000000000000000000000000000000
0000000000000000000000000000000000000000000000000000000000000000000000
0000000000000000011111111111111111111110000000000000000000000000000000
0000000000000000111111111111111111110000000000000000000000000000000000
0000000000000000000000000000000000000000000000000000000000000000000000
0000000000000000000111111111111111111111100000000000000000000000000000
0000000000000000000111111111111111111111000000000000000000000000000000
0000000000000000000000000000000000000000000000000000000000000000000000
0000000000000000000000111111111111111111111100000000000000000000000000
0000000000000000000000111111111111111111111000000000000000000000000000
0000000000000000000000000000000000000000000000000000000000000000000000
0000000000000000000000001111111111111111111111000000000000000000000000
0000000000000000000000000011111111111111111111100000000000000000000000
0000000000000000000000000000000000000000000000000000000000000000000000
0000000000000000000000000001111111111111111111111000000000000000000000
0000000000000000000000000000011111111111111111111100000000000000000000
0000000000000000000000000000000000000000000000000000000000000000000000
0000000000000000000000000000011111111111111111111110000000000000000000
0000000000000000000000000000000001111111111111111111110000000000000000
0000000000000000000000000000000000000000000000000000000000000000000000
0000000000000000000000000000000111111111111111111111110000000000000000
0000000000000000000000000000000000001111111111111111111110000000000000
0000000000000000000000000000000000000000000000000000000000000000000000
0000000000000000000000000000000001111111111111111111111100000000000000
0000000000000000000000000000000000000000111111111111111111111000000000
0000000000000000000000000000000000000000000000000000000000000000000000
0000000000000000000000000000000000011111111111111111111111100000000000
0000000000000000000000000000000000000000000111111111111111111111000000
0000000000000000000000000000000000000000000000000000000000000000000000
0000000000000000000000000000000000000011111111111111111111111000000000
0000000000000000000000000000000000000000000000111111111111111111111100
0000000000000000000000000000000000000000000000000000000000000000000000
0000000000000000000000000000000000000000111111111111111111111111000000
0000000000000000000000000000000000000000000000000011111111111111111111
1100000000000000000000000000000000000000000000000000000000000000000000
0000000000000000000000000000000000000000001111111111111111111111110000
0000000000000000000000000000000000000000000000000000011111111111111111
1111110000000000000000000000000000000000000000000000000000000000000000
0000000000000000000000000000000000000000000011111111111111111111111100
0000000000000000000000000000000000000000000000000000000001111111111111
1111111111000000000000000000000000000000000000000000000000000000000000
0000000000000000000000000000000000000000000000111111111111111111111111
0000000000000000000000000000000000000000000000000000000000001111111111
1111111111111100000000000000000000000000000000000000000000000000000000
0000000000000000000000000000000000000000000000000111111111111111111111
1110000000000000000000000000000000000000000000000000000000000000111111
1111111111111111110000000000000000000000000000000000000000000000000000
0000000000000000000000000000000000000000000000000001111111111111111111
1111100000000000000000000000000000000000000000000000000000000000000011
1111111111111111111110000000000000000000000000000000000000000000000000
0000000000000000000000000000000000000000000000000000111111111111111111
1111111100000000000000000000000000000000000000000000000000000000000000
0111111111111111111111111000000000000000000000000000000000000000000000
0000000000000000000000000000000000000000000000000000000111111111111111
1111111111000000000000000000000000000000000000000000000000000000000000
0000011111111111111111111111100000000000000000000000000000000000000000
0000000000000000000000000000000000000000000000000000000001111111111111
1111111111111000000000000000000000000000000000000000000000000000000000
0000000001111111111111111111111111000000000000000000000000000000000000
0000000000000000000000000000000000000000000000000000000000111111111111
1111111111111100000000000000000000000000000000000000000000000000000000
0000000000001111111111111111111111111100000000000000000000000000000000
0000000000000000000000000000000000000000000000000000000000001111111111
1111111111111111100000000000000000000000000000000000000000000000000000
0000000000000000111111111111111111111111110000000000000000000000000000
0000000000000000000000000000000000000000000000000000000000000011111111
1111111111111111111000000000000000000000000000000000000000000000000000
0000000000000000000111111111111111111111111111000000000000000000000000
0000000000000000000000000000000000000000000000000000000000000001111111
1111111111111111111110000000000000000000000000000000000000000000000000
0000000000000000000000011111111111111111111111111100000000000000000000
0000000000000000000000000000000000000000000000000000000000000000011111
1111111111111111111111100000000000000000000000000000000000000000000000
0000000000000000000000000001111111111111111111111111111000000000000000
0000000000000000000000000000000000000000000000000000000000000000000111
1111111111111111111111111100000000000000000000000000000000000000000000
0000000000000000000000000000000111111111111111111111111111100000000000
0000000000000000000000000000000000000000000000000000000000000000000011
1111111111111111111111111111000000000000000000000000000000000000000000
0000000000000000000000000000000000011111111111111111111111111111100000
0000000000000000000000000000000000000000000000000000000000000000000001
1111111111111111111111111111110000000000000000000000000000000000000000
0000000000000000000000000000000000000001111111111111111111111111111110
0000000000000000000000000000000000000000000000000000000000000000000000
1111111111111111111111111111111100000000000000000000000000000000000000
0000000000000000000000000000000000000000000111111111111111111111111111
1111000000000000000000000000000000000000000000000000000000000000000000
0011111111111111111111111111111111000000000000000000000000000000000000
0000000000000000000000000000000000000000000000011111111111111111111111
1111111110000000000000000000000000000000000000000000000000000000000000
0011111111111111111111111111111111110000000000000000000000000000000000
0000000000000000000000000000000000000000000000000011111111111111111111
1111111111111100000000000000000000000000000000000000000000000000000000
0001111111111111111111111111111111111100000000000000000000000000000000
0000000000000000000000000000000000000000000000000000001111111111111111
1111111111111111111100000000000000000000000000000000000000000000000000
0000111111111111111111111111111111111111000000000000000000000000000000
0000000000000000000000000000000000000000000000000000000000011111111111
1111111111111111111111111110000000000000000000000000000000000000000000
0011111111111111111111111111111111111111110000000000000000000000000000
0000000000000000000000000000000000000000000000000000000000000001111111
1111111111111111111111111111111110000000000000000000000000000000000000
0011111111111111111111111111111111111111111100000000000000000000000000
0000000000000000000000000000000000000000000000000000000000000000000111
1111111111111111111111111111111111111111000000000000000000000000000000
0111111111111111111111111111111111111111111110000000000000000000000000
0000000000000000000000000000000000000000000000000000000000000000000000
0111111111111111111111111111111111111111111111110000000000000000000111
1111111111111111111111111111111111111111111111100000000000000000000000
0000000000000000000000000000000000000000000000000000000000000000000000
0000011111111111111111111111111111111111111111111111111111111111111111
1111111111111111111111111111111111111111111111111000000000000000000000
0000000000000000000000000000000000000000000000000000000000000000000000
0000000001111111111111111111111111111111111111111111111111111111111111
1111111111111111111111111111111111111111111111111110000000000000000000
0000000000000000000000000000000000000000000000000000000000000000000000
0000000000000111111111111111111111111111111111111111111111111111111111
1111111111111111111111111111111111111111111111111111100000000000000000
0000000000000000000000000000000000000000000000000000000000000000000000
0000000000000000000111111111111111111111111111111111111111111111111111
1111111111111111111111111111111111111111111111111111110000000000000000
0000000000000000000000000000000000000000000000000000000000000000000000
0000000000000000000000011111111111111111111111111111111111111111111111
1111111111111111111111111111111111111111111111111111111000000000000000
0000000000000000000000000000000000000000000000000000000000000000000000
0000000000000000000000000001111111111111111111111111111111111111111111
1111111111111111111111111111111111111111111111111111111110000000000000
0000000000000000000000000000000000000000000000000000000000000000000000
0000000000000000000000000000000011111111111111111111111111111111111111
1111111111111111111111111111111111111111111111111111111111000000000000
0000000000000000000000000000000000000000000000000000000000000000000000
0000000000000000000000000000000000001111111111111111111111111111111111
1111111111111111111111111111111111111111111111111111111111110000000000
0000000000000000000000000000000000000000000000000000000000000000000000
0000000000000000000000000000000000000000011111111111111111111111111111
1111111111111111111111111111111111111111111111111111111111111000000000
0000000000000000000000000000000000000000000000000000000000000000000000
0000000000000000000000000000000000000000000000111111111111111111111111
1111111111111111111111111111111111111111111111111111111111111100000000
0000000000000000000000000000000000000000000000000000000000000000000000
0000000000000000000000000000000000000000000000000000111111111111111111
1111111111111111111111111111111111111111111111111111111111111100000000
0000000000000000000000000000000000000000000000000000000000000000000000
0000000000000000000000000000000000000000000000000000000001111111111111
1111111111111111111111111111111111111111111111111111111111111110000000
0000000000000000000000000000000000000000000000000000000000000000000000
0000000000000000000000000000000000000000000000000000000000000011111111
1111111111111111111111111111111111111111111111111111111111111111000000
0000000000000000000000000000000000000000000000000000000000000000000000
0000000000000000000000000000000000000000000000000000000000000000000111
1111111111111111111111111111111111111111111111111111111111111111100000
0000000000000000000000000000000000000000000000000000000000000000000000
0000000000000000000000000000000000000000000000000000000000000000000000
0001111111111111111111111111111111111111111111111111111111111111100000
0000000000000000000000000000000000000000000000000000000000000000000000
0000000000000000000000000000000000000000000000000000000000000000000000
0000000001111111111111111111111111111111111111111111111111111111100000
0000000000000000000000000000000000000000000000000000000000000000000000
0000000000000000000000000000000000000000000000000000000000000000000000
0000000000000000011111111111111111111111111111111111111111111100000000
0000000000000000000000000000000000000000000000000000000000000000000000
0000000000000000000000000000000000000000000000000000000000000000000000
0000000000000000000000000111111111111111111111111111111111111000000000
0000000000000000000000000000000000000000000000000000000000000000000000
0000000000000000000000000000000000000000000000000000000000000000000000
0000000000000000000000000000000000111111111111111111111101000000000000
0000000000000000000000000000000000000000000000000000000000000000000000
0000000000000000000000000000000000000000000000000000000000000000000000
0000000000000000000000000000000000000000000000000000000000000000000000
0000000000000000000000000000000000000000000000000000000000000000000000
0000000000000000000000000000000000000000000000000000000000000000000000
0000000000000000000000000000000000000000000000000000000000000000000000
0000000000000000000000000000000000000000000000000000000000000000000000
0000000000000000000000000000000000000000000000000000000000000000000000
0000000000000000000000000000000000000000000000000000000000000000000000
0000000000000000000000000000000000000000000000000000000000000000000000
0000000000000000000000000000000000000000000000000000000000000000000000
0000000000000000000000000000000000000000000000000000000000000000000000
0000000000000000000000000000000000000000000000000000000000000000000000
0000000000000000000000000000000000000000